<svg xmlns="http://www.w3.org/2000/svg" width="640" height="480" viewBox="0 0 640 480" fill="none">
  <rect width="640" height="480" rx="32" fill="#F0FDF4"/>
  <rect x="86" y="94" width="468" height="292" rx="30" fill="#166534"/>
  <rect x="114" y="124" width="412" height="72" rx="16" fill="#BBF7D0"/>
  <rect x="116" y="220" width="410" height="134" rx="20" fill="#DCFCE7"/>
  <g fill="#86EFAC" stroke="#166534" stroke-width="4">
    <rect x="152" y="246" width="72" height="36" rx="18"/>
    <rect x="242" y="246" width="72" height="36" rx="18"/>
    <rect x="332" y="246" width="72" height="36" rx="18"/>
    <rect x="422" y="246" width="72" height="36" rx="18"/>
    <rect x="152" y="302" width="72" height="36" rx="18"/>
    <rect x="242" y="302" width="72" height="36" rx="18"/>
    <rect x="332" y="302" width="72" height="36" rx="18"/>
    <rect x="422" y="302" width="72" height="36" rx="18"/>
  </g>
  <text x="134" y="170" fill="#14532D" font-family="Arial, sans-serif" font-size="34" font-weight="700">MEDIS WARFARIN</text>
  <text x="136" y="272" fill="#166534" font-family="Arial, sans-serif" font-size="26" font-weight="700">Anticoagulant blister demo</text>
  <text x="136" y="314" fill="#14532D" font-family="Arial, sans-serif" font-size="18">Representative pack image for frontend testing</text>
</svg>
